<svg width="24" height="24" viewBox="0 0 24 24" fill="none" xmlns="http://www.w3.org/2000/svg">
<path d="M11.9999 8.25C11.2583 8.25 10.5332 8.46993 9.91656 8.88199C9.29987 9.29404 8.81922 9.87971 8.5354 10.5649C8.25157 11.2502 8.1773 12.0042 8.322 12.7316C8.46669 13.459 8.82385 14.1272 9.34829 14.6517C9.87274 15.1761 10.5409 15.5333 11.2684 15.6779C11.9958 15.8226 12.7498 15.7484 13.435 15.4645C14.1202 15.1807 14.7059 14.7001 15.118 14.0834C15.53 13.4667 15.7499 12.7417 15.7499 12C15.747 11.0064 15.3509 10.0542 14.6483 9.35163C13.9457 8.64901 12.9936 8.25297 11.9999 8.25ZM20.0962 12C20.0942 12.3504 20.0686 12.7003 20.0193 13.0472L22.3017 14.8341C22.4011 14.9161 22.468 15.0309 22.4906 15.1578C22.5132 15.2847 22.4899 15.4155 22.4249 15.5269L20.2659 19.2544C20.2002 19.3647 20.0978 19.4484 19.9766 19.4907C19.8553 19.5329 19.7231 19.5311 19.6031 19.4855L16.9195 18.4073C16.3607 18.8377 15.7492 19.1948 15.0998 19.47L14.6985 22.3191C14.6761 22.4467 14.61 22.5625 14.5116 22.6468C14.4132 22.7311 14.2886 22.7786 14.159 22.7812H9.84088C9.71369 22.7788 9.59109 22.7333 9.4931 22.6521C9.39511 22.571 9.32751 22.459 9.30135 22.3345L8.9001 19.4855C8.24895 19.2134 7.63699 18.8557 7.08041 18.4219L4.39682 19.5C4.27686 19.5457 4.14464 19.5476 4.02342 19.5054C3.90219 19.4632 3.79971 19.3796 3.73401 19.2694L1.57494 15.5423C1.50996 15.431 1.48667 15.3002 1.50926 15.1733C1.53184 15.0464 1.59882 14.9316 1.69823 14.8495L3.98057 13.0627C3.93189 12.7105 3.90621 12.3555 3.90369 12C3.90564 11.6496 3.93133 11.2997 3.98057 10.9528L1.69823 9.16594C1.59882 9.08386 1.53184 8.96911 1.50926 8.84219C1.48667 8.71527 1.50996 8.58446 1.57494 8.47312L3.73401 4.74563C3.79964 4.63528 3.90209 4.55161 4.02332 4.50934C4.14455 4.46707 4.27681 4.46891 4.39682 4.51453L7.08041 5.59266C7.63922 5.16235 8.25074 4.80524 8.9001 4.53L9.30135 1.68094C9.32381 1.55332 9.38989 1.43746 9.48829 1.35316C9.5867 1.26886 9.71133 1.22135 9.84088 1.21875H14.159C14.2862 1.22123 14.4088 1.26675 14.5068 1.34788C14.6048 1.42901 14.6724 1.54097 14.6985 1.66547L15.0998 4.51453C15.7518 4.78639 16.3645 5.14408 16.9218 5.57812L19.6031 4.5C19.723 4.45434 19.8552 4.45243 19.9765 4.49461C20.0977 4.53679 20.2002 4.62036 20.2659 4.73062L22.4249 8.45813C22.4899 8.56946 22.5132 8.70027 22.4906 8.82719C22.468 8.95411 22.4011 9.06886 22.3017 9.15094L20.0193 10.9378C20.068 11.2898 20.0937 11.6446 20.0962 12Z" fill="#FCFCFC"/>
</svg>
