<svg width="24" height="24" viewBox="0 0 24 24" fill="none" xmlns="http://www.w3.org/2000/svg">
<path d="M14.4 2.4001C14.4 2.11192 14.245 1.84602 13.9943 1.704C13.7435 1.56197 13.4357 1.56579 13.1886 1.71398L5.37854 6.39698H2.4C1.07395 6.39698 0 7.46917 0 8.79579V15.2001C0 16.526 1.07318 17.6001 2.4 17.6001H5.37842L13.1884 22.286C13.4356 22.4343 13.7433 22.4383 13.9942 22.2963C14.245 22.1542 14.4 21.8883 14.4 21.6001V2.4001Z" fill="#FCFCFC"/>
<path d="M21.132 11.9941L23.3937 14.2544L22.2627 15.3862L20.0001 13.1251L17.7376 15.3862L16.6067 14.2544L18.8684 11.9941L16.6062 9.73331L17.7372 8.60156L20.0001 10.8631L22.2632 8.60156L23.3942 9.73331L21.132 11.9941Z" fill="#FCFCFC"/>
</svg>
