<svg width="24" height="24" viewBox="0 0 24 24" fill="none" xmlns="http://www.w3.org/2000/svg">
<g clip-path="url(#clip0_1010_1656)">
<path d="M13.9943 1.704C14.245 1.84602 14.4 2.11192 14.4 2.4001V21.6001C14.4 21.8883 14.245 22.1542 13.9942 22.2963C13.7433 22.4383 13.4356 22.4343 13.1884 22.286L5.37842 17.6001H2.4C1.07531 17.6001 0 16.5265 0 15.2001V8.79592C0 7.46886 1.07599 6.39696 2.4 6.39696H5.37854L13.1886 1.71398C13.4358 1.56579 13.7435 1.56197 13.9943 1.704Z" fill="#FCFCFC"/>
<path d="M22.1656 6.63093L21.5996 6.06543L20.4688 7.19716L21.031 7.75917L21.0345 7.76287C21.0403 7.7689 21.0513 7.78085 21.067 7.79874C21.0982 7.83453 21.1479 7.89391 21.2102 7.97681C21.3347 8.14271 21.5084 8.40185 21.6846 8.75397C22.0356 9.45559 22.4001 10.533 22.4001 11.9937C22.4001 13.4543 22.0356 14.5317 21.6846 15.2334C21.5084 15.5855 21.3347 15.8446 21.2102 16.0105C21.1479 16.0934 21.0982 16.1527 21.067 16.1886C21.0513 16.2065 21.0403 16.2185 21.0345 16.2244L21.0311 16.2281L20.4688 16.7902L21.5996 17.9218L22.1656 17.3564L21.6001 16.7905C22.1655 17.3564 22.1652 17.3567 22.1656 17.3564L22.1668 17.3553L22.1681 17.3538L22.1712 17.3508L22.1792 17.3426L22.2016 17.3191C22.2193 17.3002 22.2427 17.2746 22.2707 17.2426C22.3268 17.1785 22.4022 17.0879 22.4899 16.971C22.6654 16.737 22.8916 16.3966 23.1155 15.9493C23.5644 15.0519 24.0001 13.7309 24.0001 11.9937C24.0001 10.2564 23.5644 8.9354 23.1155 8.03805C22.8916 7.59069 22.6654 7.25023 22.4899 7.01641C22.4022 6.89943 22.3268 6.8089 22.2707 6.74474C22.2427 6.71266 22.2193 6.68714 22.2016 6.6682L22.1792 6.64466L22.1712 6.63657L22.1681 6.63345L22.1668 6.6321C22.1665 6.63181 22.1655 6.63093 21.6001 7.19679L22.1656 6.63093Z" fill="#FCFCFC"/>
</g>
<defs>
<clipPath id="clip0_1010_1656">
<rect width="24" height="24" fill="white"/>
</clipPath>
</defs>
</svg>
